<?xml version="1.0" encoding="UTF-8"?>
<!DOCTYPE svg PUBLIC "-//W3C//DTD SVG 1.1//EN" "http://www.w3.org/Graphics/SVG/1.1/DTD/svg11.dtd">
<!-- Creator: CorelDRAW 2020 (64 Bit) -->
<svg xmlns="http://www.w3.org/2000/svg" xml:space="preserve" width="12.3608mm" height="8.6358mm" version="1.1" style="shape-rendering:geometricPrecision; text-rendering:geometricPrecision; image-rendering:optimizeQuality; fill-rule:evenodd; clip-rule:evenodd"
viewBox="0 0 1236.08 863.58"
 xmlns:xlink="http://www.w3.org/1999/xlink"
 xmlns:xodm="http://www.corel.com/coreldraw/odm/2003">
 <defs>
  <style type="text/css">
   <![CDATA[
    .fil1 {fill:#00A859}
    .fil2 {fill:#ED3237}
    .fil0 {fill:#FFF212}
    .fil4 {fill:#FEFEFE;fill-rule:nonzero}
    .fil3 {fill:#FEFEFE;fill-rule:nonzero}
   ]]>
  </style>
 </defs>
 <g id="Camada_x0020_1">
  <metadata id="CorelCorpID_0Corel-Layer"/>
  <rect class="fil0" x="1019.51" y="368.56" width="159.27" height="107.77"/>
  <rect class="fil1" x="1019.67" y="216.57" width="159.27" height="107.77"/>
  <rect class="fil2" x="1020.29" y="520.45" width="159.27" height="107.77"/>
  <rect class="fil0" x="78.92" y="375.59" width="159.27" height="107.77"/>
  <rect class="fil1" x="79.11" y="223.61" width="159.27" height="107.77"/>
  <rect class="fil2" x="79.74" y="527.48" width="159.27" height="107.77"/>
  <path class="fil3" d="M286.61 620.4l0 -431.8 195.05 0 0 94.82 -110.44 0 0 74.88 104.13 0 0 92.4 -104.13 0 0 73.07 110.44 0 0 96.63 -195.05 0zm298.29 0l0 -329.73 -71.26 0 0 -102.07 229.34 0 0 102.07 -71.25 0 0 329.73 -86.83 0zm200.47 0l0 -431.8 195.05 0 0 94.82 -110.45 0 0 74.88 104.13 0 0 92.4 -104.13 0 0 73.07 110.45 0 0 96.63 -195.05 0z"/>
  <path class="fil4" d="M260.65 732.77l0.3 -52.73 23.35 0.06 -0.07 11.58 -13.25 -0.03 -0.05 9.14 12.5 0.03 -0.06 11.3 -12.5 -0.04 -0.05 8.92 13.25 0.03 -0.06 11.81 -23.36 -0.07zm31.98 -16.94c1.53,2.42 3.06,4.23 4.53,5.45 1.5,1.19 3,1.79 4.48,1.79 1.41,0.01 2.53,-0.5 3.42,-1.53 0.92,-1.04 1.39,-2.33 1.4,-3.93 0.01,-1.74 -0.38,-3.09 -1.16,-4.04 -0.75,-0.94 -2.48,-1.93 -5.2,-2.94 -3.73,-1.41 -6.38,-3.24 -7.87,-5.46 -1.56,-2.26 -2.3,-5.31 -2.28,-9.21 0.03,-5.04 1.26,-9.14 3.71,-12.33 2.44,-3.17 5.63,-4.74 9.5,-4.73 2.14,0.01 4.1,0.41 5.97,1.19 1.89,0.78 3.66,1.96 5.36,3.56l-3.34 10.32c-1.17,-1.39 -2.35,-2.44 -3.59,-3.16 -1.24,-0.7 -2.49,-1.06 -3.7,-1.06 -1.22,0 -2.23,0.4 -3.03,1.22 -0.79,0.82 -1.19,1.9 -1.19,3.2 -0.01,1.31 0.34,2.35 1,3.15 0.68,0.81 2.02,1.57 3.95,2.29l0.46 0.19c4.22,1.59 7.03,3.34 8.33,5.25 0.91,1.29 1.6,2.85 2.04,4.66 0.49,1.82 0.67,3.81 0.66,6.02 -0.03,5.6 -1.37,10.1 -4.04,13.48 -2.68,3.41 -6.23,5.09 -10.66,5.07 -2.62,0 -5.05,-0.63 -7.24,-1.88 -2.15,-1.26 -4.24,-3.21 -6.23,-5.9l4.72 -10.67zm57.06 -33.49l-0.09 15.72c-1.4,-2.2 -2.83,-3.8 -4.24,-4.81 -1.4,-1.03 -2.91,-1.55 -4.52,-1.55 -2.98,-0.01 -5.42,1.4 -7.27,4.2 -1.85,2.8 -2.82,6.49 -2.85,11.02 -0.02,4.22 0.91,7.73 2.8,10.52 1.85,2.8 4.24,4.2 7.16,4.2 1.61,0.01 3.12,-0.5 4.53,-1.52 1.42,-1 2.87,-2.59 4.29,-4.8l-0.08 15.72c-1.65,1.1 -3.29,1.93 -4.94,2.48 -1.61,0.55 -3.28,0.81 -4.95,0.81 -2.07,-0.01 -3.97,-0.36 -5.74,-1.04 -1.73,-0.7 -3.37,-1.75 -4.83,-3.13 -2.81,-2.65 -4.99,-5.98 -6.44,-10 -1.46,-4.02 -2.19,-8.53 -2.16,-13.56 0.02,-4.03 0.5,-7.68 1.47,-11 0.97,-3.3 2.43,-6.28 4.32,-8.96 1.81,-2.58 3.86,-4.48 6.13,-5.75 2.27,-1.26 4.8,-1.89 7.55,-1.88 1.67,0 3.35,0.27 4.95,0.83 1.64,0.56 3.27,1.4 4.91,2.5zm44.83 24.55c-0.02,3.8 -0.54,7.34 -1.57,10.66 -1.04,3.32 -2.53,6.26 -4.44,8.88 -1.95,2.6 -4.2,4.58 -6.7,5.99 -2.5,1.39 -5.09,2.08 -7.78,2.07 -2.72,-0.01 -5.34,-0.71 -7.83,-2.11 -2.45,-1.43 -4.64,-3.42 -6.52,-6.03 -1.96,-2.63 -3.42,-5.6 -4.42,-8.95 -0.99,-3.34 -1.47,-6.87 -1.45,-10.62 0.03,-3.77 0.54,-7.32 1.57,-10.65 1.04,-3.32 2.53,-6.29 4.51,-8.91 1.92,-2.57 4.13,-4.56 6.59,-5.96 2.51,-1.41 5.13,-2.1 7.86,-2.09 2.68,0 5.3,0.71 7.79,2.13 2.52,1.42 4.7,3.42 6.59,6 1.89,2.61 3.35,5.59 4.35,8.93 1,3.33 1.47,6.89 1.45,10.66zm-20.46 15.44c2.89,0.01 5.26,-1.46 7.18,-4.38 1.92,-2.93 2.86,-6.64 2.88,-11.08 0.02,-4.43 -0.91,-8.12 -2.79,-11.08 -1.89,-2.96 -4.27,-4.44 -7.09,-4.45 -2.86,-0.01 -5.26,1.46 -7.15,4.39 -1.92,2.94 -2.89,6.63 -2.91,11.08 -0.03,4.51 0.9,8.22 2.73,11.14 1.85,2.91 4.23,4.37 7.15,4.38zm26.81 10.84l0.29 -52.74 10.39 0.03 -0.22 40.42 12.89 0.04 -0.07 12.32 -23.28 -0.07zm38.54 -19.59l10.34 0.03 -3.78 -17.41c-0.13,-0.54 -0.29,-1.38 -0.48,-2.57 -0.22,-1.19 -0.47,-2.68 -0.79,-4.53 -0.24,1.29 -0.47,2.52 -0.71,3.71 -0.2,1.17 -0.44,2.29 -0.64,3.38l-3.94 17.39zm-14.67 19.66l13.45 -52.7 13.02 0.03 12.86 52.78 -10.33 -0.03 -1.85 -9.46 -14.76 -0.04 -2.06 9.45 -10.33 -0.03zm81.77 0.23l0.22 -40.28 -8.53 -0.02 0.07 -12.47 27.45 0.08 -0.06 12.46 -8.53 -0.02 -0.22 40.28 -10.4 -0.03zm24.01 0.07l0.29 -52.74 23.32 0.06 -0.07 11.58 -13.21 -0.03 -0.06 9.14 12.47 0.03 -0.06 11.3 -12.47 -0.04 -0.05 8.92 13.22 0.03 -0.06 11.81 -23.32 -0.06zm19.84 -70.91l-8.11 12.58 -4 -0.01 4.79 -12.59 7.32 0.02zm38.23 20.38l-0.09 15.72c-1.4,-2.2 -2.83,-3.8 -4.24,-4.81 -1.4,-1.03 -2.91,-1.54 -4.52,-1.55 -2.98,-0.01 -5.41,1.4 -7.27,4.2 -1.85,2.81 -2.82,6.49 -2.85,11.02 -0.02,4.23 0.91,7.73 2.8,10.53 1.85,2.79 4.24,4.19 7.16,4.2 1.61,0 3.12,-0.51 4.53,-1.53 1.42,-1 2.87,-2.59 4.29,-4.8l-0.08 15.72c-1.65,1.1 -3.29,1.94 -4.94,2.49 -1.61,0.55 -3.25,0.81 -4.92,0.8 -2.1,0 -4,-0.36 -5.77,-1.04 -1.73,-0.7 -3.37,-1.75 -4.83,-3.13 -2.81,-2.65 -4.99,-5.98 -6.44,-10 -1.46,-4.02 -2.19,-8.53 -2.16,-13.55 0.02,-4.04 0.5,-7.69 1.47,-11.01 0.97,-3.29 2.43,-6.28 4.32,-8.96 1.81,-2.58 3.86,-4.48 6.13,-5.74 2.27,-1.27 4.8,-1.9 7.59,-1.89 1.67,0.01 3.31,0.28 4.91,0.84 1.64,0.55 3.27,1.4 4.91,2.49zm5.59 50.7l0.29 -52.73 10 0.02 14.25 27.16c0.29,0.56 0.71,1.68 1.36,3.35 0.61,1.66 1.29,3.65 2.03,5.97 -0.18,-2.2 -0.34,-4.14 -0.39,-5.85 -0.09,-1.7 -0.15,-3.21 -0.14,-4.53l0.14 -26.05 9.97 0.03 -0.29 52.74 -9.97 -0.03 -14.21 -27.28c-0.33,-0.55 -0.78,-1.66 -1.39,-3.32 -0.62,-1.69 -1.33,-3.66 -2.04,-5.91 0.19,2.21 0.34,4.16 0.43,5.88 0.09,1.7 0.11,3.22 0.1,4.53l-0.14 26.05 -10 -0.03zm45.65 0.13l0.29 -52.74 10.5 0.03 -0.29 52.74 -10.5 -0.03zm46.72 -50.55l-0.08 15.72c-1.43,-2.2 -2.84,-3.8 -4.24,-4.81 -1.4,-1.03 -2.91,-1.55 -4.52,-1.55 -3.02,-0.01 -5.42,1.4 -7.27,4.2 -1.85,2.8 -2.82,6.49 -2.85,11.02 -0.02,4.22 0.91,7.73 2.76,10.52 1.89,2.8 4.28,4.2 7.2,4.2 1.6,0.01 3.12,-0.5 4.53,-1.52 1.42,-1 2.84,-2.6 4.29,-4.81l-0.09 15.73c-1.64,1.1 -3.29,1.93 -4.93,2.48 -1.64,0.55 -3.28,0.81 -4.96,0.81 -2.06,-0.01 -4,-0.36 -5.73,-1.04 -1.77,-0.7 -3.37,-1.75 -4.84,-3.13 -2.84,-2.65 -4.98,-5.98 -6.44,-10 -1.48,-4.02 -2.18,-8.53 -2.15,-13.56 0.02,-4.03 0.5,-7.68 1.47,-11 0.94,-3.3 2.4,-6.29 4.31,-8.97 1.82,-2.57 3.87,-4.47 6.14,-5.74 2.27,-1.26 4.79,-1.89 7.55,-1.88 1.67,0 3.31,0.27 4.95,0.83 1.63,0.56 3.27,1.4 4.9,2.5zm15.74 31.03l10.33 0.03 -3.77 -17.41c-0.1,-0.54 -0.26,-1.38 -0.48,-2.57 -0.19,-1.19 -0.48,-2.68 -0.8,-4.53 -0.2,1.29 -0.44,2.52 -0.67,3.71 -0.21,1.17 -0.44,2.29 -0.68,3.38l-3.93 17.39zm-14.64 19.66l13.44 -52.7 12.99 0.03 12.9 52.78 -10.34 -0.03 -1.88 -9.45 -14.76 -0.05 -2.02 9.45 -10.33 -0.03zm59.63 0.17l0.29 -52.74 23.32 0.06 -0.07 11.58 -13.21 -0.03 -0.05 9.14 12.46 0.03 -0.06 11.3 -12.47 -0.04 -0.05 8.92 13.22 0.04 -0.06 11.8 -23.32 -0.06zm31.97 -16.95c1.53,2.43 3.03,4.23 4.53,5.45 1.5,1.19 3.01,1.79 4.48,1.79 1.38,0.01 2.53,-0.5 3.42,-1.52 0.93,-1.05 1.36,-2.34 1.37,-3.94 0.01,-1.74 -0.38,-3.09 -1.13,-4.04 -0.78,-0.94 -2.51,-1.93 -5.19,-2.94 -3.74,-1.41 -6.38,-3.24 -7.91,-5.46 -1.53,-2.26 -2.3,-5.31 -2.28,-9.21 0.03,-5.04 1.26,-9.13 3.74,-12.33 2.45,-3.17 5.64,-4.73 9.51,-4.72 2.1,0 4.09,0.4 5.96,1.18 1.9,0.79 3.66,1.96 5.33,3.56l-3.31 10.32c-1.17,-1.39 -2.38,-2.44 -3.62,-3.16 -1.21,-0.7 -2.45,-1.06 -3.67,-1.06 -1.24,0 -2.26,0.4 -3.02,1.22 -0.79,0.82 -1.19,1.91 -1.2,3.2 -0.01,1.31 0.31,2.35 1,3.16 0.68,0.8 1.99,1.56 3.95,2.28l0.46 0.19c4.22,1.59 7,3.34 8.34,5.25 0.91,1.29 1.56,2.85 2.04,4.66 0.45,1.82 0.67,3.81 0.65,6.03 -0.03,5.59 -1.36,10.1 -4.04,13.47 -2.68,3.42 -6.23,5.09 -10.65,5.07 -2.66,0 -5.05,-0.62 -7.24,-1.88 -2.19,-1.26 -4.25,-3.21 -6.27,-5.9l4.75 -10.67zm34.64 17.13l0.22 -40.27 -8.52 -0.03 0.06 -12.46 27.46 0.08 -0.07 12.46 -8.53 -0.02 -0.22 40.27 -10.4 -0.03zm32.02 -19.6l10.33 0.03 -3.77 -17.42c-0.13,-0.53 -0.29,-1.37 -0.48,-2.56 -0.22,-1.19 -0.48,-2.69 -0.79,-4.53 -0.24,1.29 -0.44,2.52 -0.68,3.71 -0.24,1.16 -0.44,2.29 -0.67,3.38l-3.94 17.39zm-14.67 19.65l13.48 -52.7 12.98 0.04 12.87 52.77 -10.3 -0.03 -1.89 -9.45 -14.75 -0.04 -2.06 9.44 -10.33 -0.03zm42.97 0.12l0.29 -52.73 7.93 0.02c5.91,0.01 10.1,0.4 12.53,1.18 2.45,0.77 4.61,2.06 6.47,3.87 2.38,2.35 4.2,5.34 5.43,8.98 1.22,3.63 1.82,7.79 1.8,12.44 -0.03,4.65 -0.67,8.81 -1.94,12.44 -1.27,3.64 -3.12,6.61 -5.53,8.94 -1.84,1.78 -3.95,3.04 -6.31,3.79 -2.37,0.74 -6.01,1.12 -11,1.1l-1.74 0 -7.93 -0.03zm10.33 -11.77l1.77 0c4.07,0.01 7.06,-1.13 8.94,-3.46 1.88,-2.29 2.85,-5.97 2.88,-11.02 0.03,-5.04 -0.9,-8.73 -2.76,-11.09 -1.86,-2.37 -4.83,-3.54 -8.9,-3.55l-1.77 -0.01 -0.16 29.13zm30.56 -40.85l10.33 0.03 -0.14 25.66c-0.02,3.75 0.03,6.48 0.15,8.1 0.16,1.66 0.35,3.03 0.7,4.14 0.39,1.33 1.07,2.38 2.05,3.1 0.98,0.7 2.19,1.05 3.64,1.06 1.41,0 2.62,-0.34 3.58,-1.04 0.98,-0.71 1.71,-1.76 2.11,-3.09 0.34,-1.1 0.57,-2.48 0.75,-4.14 0.14,-1.61 0.22,-4.34 0.24,-8.09l0.02 -3.61 0.12 -22.05 10.33 0.03 -0.15 27.87c-0.03,5.8 -0.32,10.06 -0.83,12.81 -0.5,2.74 -1.37,5.08 -2.59,7.04 -1.3,2.13 -3.11,3.72 -5.38,4.78 -2.27,1.08 -5.02,1.59 -8.27,1.58 -3.28,-0.01 -6.03,-0.53 -8.29,-1.62 -2.26,-1.07 -4.02,-2.68 -5.35,-4.81 -1.17,-1.97 -1.98,-4.31 -2.49,-7.06 -0.48,-2.75 -0.71,-7.01 -0.68,-12.81l0.03 -5.48 0.12 -22.4zm50.72 33.18l10.33 0.03 -3.77 -17.41c-0.13,-0.53 -0.29,-1.37 -0.48,-2.56 -0.22,-1.19 -0.48,-2.69 -0.79,-4.54 -0.24,1.3 -0.44,2.52 -0.68,3.71 -0.24,1.17 -0.44,2.3 -0.68,3.38l-3.93 17.39zm-14.67 19.66l13.48 -52.7 12.98 0.04 12.86 52.77 -10.29 -0.03 -1.89 -9.45 -14.76 -0.04 -2.05 9.44 -10.33 -0.03zm42.97 0.12l0.29 -52.74 10.39 0.03 -0.22 40.42 12.89 0.04 -0.07 12.32 -23.28 -0.07z"/>
 </g>
</svg>
